<svg xmlns="http://www.w3.org/2000/svg" width="235" height="243.958" viewBox="0 0 235 243.958"><defs><style>.a{fill:#68933f;}.b{fill:#95cc6d;}.c{fill:#f23558;}.d{fill:#b52842;}.e{fill:#3a3a3a;}.f,.g{fill:#fff;}.f{opacity:0.7;}</style></defs><path class="a" d="M0,65.55H235v37.893a10.332,10.332,0,0,1-10.332,10.332H10.332A10.332,10.332,0,0,1,0,103.443Z" transform="translate(0 130.184)"/><path class="b" d="M11.2,0H223.952A11.2,11.2,0,0,1,235,11.2V198.839H0V11.2A11.2,11.2,0,0,1,11.2,0Z"/><rect class="c" width="187.492" height="187.492" rx="3.52" transform="translate(37.266 38.878)"/><path class="d" d="M12.48,62.87H199.972v28.1a10.511,10.511,0,0,1-10.511,10.511H22.991A10.511,10.511,0,0,1,12.48,90.968Z" transform="translate(24.786 124.861)"/><path class="e" d="M190.792,6.129V41.782a2.21,2.21,0,0,1-2.21,2.21H43.522V189.083a2.21,2.21,0,0,1-2.21,2.21H5.51a2.3,2.3,0,0,1-2.269-2.329V6.129A2.3,2.3,0,0,1,5.51,3.8H188.463a2.329,2.329,0,0,1,2.329,2.329Z" transform="translate(6.435 7.547)"/><path class="f" d="M0,0H69.574a10.063,10.063,0,0,1,9.943,10.063V40.252H0Z" transform="translate(210.335 119.202) rotate(90)"/><path class="g" d="M56.93,20.49H86.492A10.929,10.929,0,0,1,97.421,31.419V60.831H56.93Z" transform="translate(113.064 40.694)"/></svg>