<svg xmlns="http://www.w3.org/2000/svg" width="294" height="51.607" viewBox="0 0 294 51.607"><defs><style>.a{fill:#3a3a3a;}.b{fill:#68933f;}.c{fill:#95cc6d;}.d{fill:#f23558;}.e{fill:#b52842;}.f,.g{fill:#fff;}.f{opacity:0.7;}</style></defs><path class="a" d="M93.45,23.02V0h19.258V6.263H99.966V16.707h6.176v-2.1h-2.014V10.5H112.7V23.02Z" transform="translate(-34.334)"/><path class="a" d="M138.091,23.024H130.71V.14h19.505V23.024h-7.2V18.286h-4.941Zm.049-10.778h4.83V6.292h-4.83Z" transform="translate(-48.022 -0.054)"/><path class="a" d="M191.139.14V22.993h-6.794V16.452h-2.359v1.853H177.47V16.452H175.1v6.529H168.23V.14h6.911V4.464h2.211V8.169h4.632V4.464h2.329V.14h6.794Z" transform="translate(-61.774 -0.054)"/><path class="a" d="M234.6.14V22.993H227.8V16.452H225.47v1.853h-4.515V16.452h-2.372v6.529H211.69V.14H218.6V4.464h2.236V8.169h4.632V4.464H227.8V.14h6.794Z" transform="translate(-77.733 -0.054)"/><path class="a" d="M262.082,23.024H254.67V.14h19.536V23.024H267V18.286h-4.941Zm.043-10.778h4.83V6.292h-4.83Z" transform="translate(-93.563 -0.054)"/><path class="a" d="M101,44.61V67.519H93.48V44.61Z" transform="translate(-34.404 -15.917)"/><path class="a" d="M130.856,44.61V67.519h-7.319V63.065h-2.415V61.1h-2.471v6.424H111.24V44.61h7.338v4.114h2.415v4.052H123.5V44.61Z" transform="translate(-40.868 -15.917)"/><path class="a" d="M170.927,44.65v6.442h-7.381V67.534h-7.294V51.092H148.84V44.65Z" transform="translate(-54.661 -15.933)"/><path class="a" d="M198.281,53.235h9.8v5.9h-9.8v2.471h9.8V67.54H190.9V44.65h17.183v6.176h-9.8V53.26Z" transform="translate(-70.16 -15.933)"/><path class="a" d="M244.468,46.861V57.287H242v2.4h2.471v7.844H237.13V61.178h-4.941v6.356H224.87V44.65H242v2.211Zm-7.338,3.823h-4.941v4.324h4.941Z" transform="translate(-82.614 -15.933)"/><path class="a" d="M269.412,67.534H262V44.65h19.505V67.534h-7.152V62.778h-4.941Zm.043-10.784h4.836V50.8h-4.836Z" transform="translate(-96.257 -15.933)"/><path class="a" d="M306.63,50.762v9.956h14.206v6.034H299.7V44.61h21.185v6.176H306.679Zm0,.76v9.956h14.206v6.041H299.7V45.37h21.185v6.176H306.679Z" transform="translate(-110.079 -15.917)"/><path class="a" d="M362.507,44.65v6.442h-7.381V67.534h-7.294V51.092H340.42V44.65h22.1Z" transform="translate(-125.018 -15.933)"/><path class="a" d="M389.781,44.61V67.519H382.27V44.61Z" transform="translate(-139.671 -15.917)"/><path class="a" d="M419.658,44.65V63.278h-2.415v2.174h-2.471v2.081h-9.746V65.452h-2.415V63.278H400.14V44.65h7.325V59.121h4.941V44.65Z" transform="translate(-146.503 -15.933)"/><path class="a" d="M445.061,53.235h9.8v5.9h-9.8v2.471h9.8V67.54H437.68V44.65h17.177v6.176h-9.8V53.26Z" transform="translate(-160.857 -15.933)"/><path class="b" d="M0,65.55H48.609v7.838a2.137,2.137,0,0,1-2.137,2.137H2.137A2.137,2.137,0,0,1,0,73.388Z" transform="translate(0 -23.924)"/><path class="c" d="M2.316,0H46.324a2.316,2.316,0,0,1,2.285,2.316V41.129H0V2.316A2.316,2.316,0,0,1,2.316,0Z"/><rect class="d" width="38.782" height="38.782" rx="3.52" transform="translate(7.708 9.181)"/><path class="e" d="M12.48,62.87H51.262v5.812a2.174,2.174,0,0,1-2.174,2.174H14.654a2.174,2.174,0,0,1-2.174-2.174Z" transform="translate(-4.772 -22.899)"/><path class="a" d="M42.034,4.282v7.375a.457.457,0,0,1-.457.457H11.572V42.125a.457.457,0,0,1-.457.457H3.709A.476.476,0,0,1,3.24,42.1V4.282A.476.476,0,0,1,3.709,3.8H41.553a.482.482,0,0,1,.482.482Z" transform="translate(-1.239 -1.453)"/><path class="f" d="M0,0H14.391a2.081,2.081,0,0,1,2.057,2.081V8.326H0Z" transform="translate(43.507 25.482) rotate(90)"/><path class="g" d="M56.93,20.49h6.115a2.261,2.261,0,0,1,2.261,2.261v6.084H56.93Z" transform="translate(-21.767 -7.492)"/></svg>